<svg width="100" height="98" viewBox="0 0 100 98" fill="none" xmlns="http://www.w3.org/2000/svg">
  <g filter="url(#filter0_d_8_70)">
    <path d="M94.5596 47.8414C94.5596 72.0543 74.7348 91.6827 50.2798 91.6827C25.8247 91.6827 6 72.0543 6 47.8414C6 23.6284 25.8247 3.99999 50.2798 3.99999C74.7348 3.99999 94.5596 23.6284 94.5596 47.8414Z" fill="#3E68FF"/>
    <path d="M94.0596 47.8414C94.0596 71.7735 74.4634 91.1827 50.2798 91.1827C26.0962 91.1827 6.5 71.7735 6.5 47.8414C6.5 23.9093 26.0962 4.49999 50.2798 4.49999C74.4634 4.49999 94.0596 23.9093 94.0596 47.8414Z" stroke="black"/>
  </g>
  <path d="M76.9619 47.6222C76.9619 62.4791 64.9179 74.523 50.061 74.523C35.2041 74.523 23.1602 62.4791 23.1602 47.6222C23.1602 32.7652 35.2041 20.7213 50.061 20.7213C64.9179 20.7213 76.9619 32.7652 76.9619 47.6222Z" fill="#D9D9D9" stroke="black"/>
  <defs>
    <filter id="filter0_d_8_70" x="-2" y="0" width="104.56" height="103.683" filterUnits="userSpaceOnUse" color-interpolation-filters="sRGB">
      <feFlood flood-opacity="0" result="BackgroundImageFix"/>
      <feColorMatrix in="SourceAlpha" type="matrix" values="0 0 0 0 0 0 0 0 0 0 0 0 0 0 0 0 0 0 127 0" result="hardAlpha"/>
      <feOffset dy="4"/>
      <feGaussianBlur stdDeviation="4"/>
      <feComposite in2="hardAlpha" operator="out"/>
      <feColorMatrix type="matrix" values="0 0 0 0 0 0 0 0 0 0 0 0 0 0 0 0 0 0 0.25 0"/>
      <feBlend mode="normal" in2="BackgroundImageFix" result="effect1_dropShadow_8_70"/>
      <feBlend mode="normal" in="SourceGraphic" in2="effect1_dropShadow_8_70" result="shape"/>
    </filter>
  </defs>
</svg>